<svg width="145" height="63" viewBox="0 0 145 63" fill="none" xmlns="http://www.w3.org/2000/svg">
<path d="M0 50.9743H0.646923V57.2846H0V50.9743ZM0.446154 56.7063H4.17154V57.2846H0.446154V56.7063Z" fill="#0C0801"/>
<path d="M7.98616 55.5247C7.98616 55.927 8.09769 56.2287 8.29846 56.4549C8.49923 56.6812 8.81154 56.7818 9.19077 56.7818C9.57 56.7818 9.88231 56.6812 10.0831 56.4801C10.2838 56.279 10.3954 56.0024 10.3954 55.6253L10.4623 56.5555C10.3508 56.7818 10.1723 56.9577 9.90462 57.1086C9.63693 57.2594 9.32462 57.3349 8.94539 57.3349C8.43231 57.3349 8.03077 57.184 7.76308 56.8572C7.47308 56.5304 7.33923 56.0778 7.33923 55.4996V52.7593H7.98616V55.5247ZM10.3954 52.7844H11.0423V57.2846H10.3954V52.7844Z" fill="#0C0801"/>
<path d="M16.0171 54.7957L16.374 55.3236L14.8794 57.2846H14.1655L16.0171 54.7957ZM16.0394 55.1476L14.1655 52.7844H14.8794L16.3963 54.7957L18.2924 57.2846H17.5786L16.0394 55.1476ZM16.1509 54.7454L17.5117 52.7844H18.2255L16.4632 55.2231L16.1509 54.7454Z" fill="#0C0801"/>
<path d="M22.1517 55.5247C22.1517 55.927 22.2632 56.2287 22.464 56.4549C22.6648 56.6812 22.9771 56.7818 23.3563 56.7818C23.7355 56.7818 24.0478 56.6812 24.2486 56.4801C24.4494 56.279 24.5609 56.0024 24.5609 55.6253L24.6278 56.5555C24.5163 56.7818 24.3378 56.9577 24.0701 57.1086C23.8025 57.2594 23.4901 57.3349 23.1109 57.3349C22.5978 57.3349 22.1963 57.184 21.9286 56.8572C21.6609 56.5304 21.5048 56.0778 21.5048 55.4996V52.7593H22.1517V55.5247ZM24.5609 52.7844H25.2078V57.2846H24.5609V52.7844Z" fill="#0C0801"/>
<path d="M28.7546 52.7845H29.4016V57.2846H28.7546V52.7845ZM31.1416 53.3627C31.0077 53.3124 30.8293 53.2873 30.6285 53.2873C30.2493 53.2873 29.9369 53.3878 29.7139 53.589C29.4908 53.7901 29.4016 54.0666 29.4016 54.4186L29.3123 53.5638C29.4908 53.2873 29.7139 53.0862 29.9816 52.9353C30.2493 52.7845 30.5616 52.709 30.8962 52.709C31.0969 52.709 31.2977 52.7342 31.4762 52.8096C31.6546 52.8599 31.7885 52.9604 31.9223 53.061L31.4985 53.589C31.4093 53.4884 31.2754 53.413 31.1416 53.3627Z" fill="#0C0801"/>
<path d="M34.3538 52.7844H35.023L36.5399 56.9578L36.2053 57.6617L34.3538 52.7844ZM38.4584 52.7844L36.473 58.3405C36.4061 58.5416 36.3168 58.7176 36.183 58.8182C36.0715 58.9439 35.9153 59.0193 35.7591 59.0696C35.5807 59.1198 35.3799 59.145 35.1345 59.145H34.9561V58.5667H35.1345C35.3799 58.5667 35.5584 58.5165 35.7145 58.4159C35.8484 58.3153 35.9822 58.1394 36.0715 57.8628L37.7891 52.7844H38.4584Z" fill="#0C0801"/>
<path d="M46.9354 54.5946C46.69 54.8209 46.5562 55.1477 46.5562 55.5499C46.5562 55.9522 46.69 56.279 46.9577 56.4801C47.2254 56.7064 47.5823 56.807 48.0731 56.807C48.4969 56.807 48.8762 56.7064 49.1885 56.5053C49.5008 56.3042 49.7239 56.0025 49.88 55.6254C50.0362 55.2231 50.1254 54.7454 50.1254 54.1672H50.7277C50.7277 54.8711 50.6385 55.4494 50.4377 55.927C50.2592 56.4047 49.9469 56.7567 49.5231 56.9829C49.0992 57.2344 48.5639 57.3349 47.8723 57.3349C47.4708 57.3349 47.1139 57.2595 46.8239 57.1338C46.5339 56.9829 46.3108 56.7818 46.1769 56.5053C46.0208 56.2287 45.9539 55.9019 45.9539 55.5248C45.9539 55.022 46.11 54.5946 46.4 54.2929C46.69 53.9912 47.1139 53.8152 47.6492 53.765L48.0285 54.2426C47.5377 54.2426 47.1808 54.3683 46.9354 54.5946ZM47.8277 54.9466C47.5377 54.6952 47.3146 54.4437 47.1362 54.1923C46.9577 53.9661 46.8239 53.7147 46.7123 53.4633C46.6231 53.2119 46.5785 52.9353 46.5785 52.6588C46.5785 52.1057 46.7346 51.6783 47.0246 51.3766C47.3369 51.0749 47.7608 50.9241 48.3185 50.9241C48.8762 50.9241 49.3 51.0749 49.59 51.3515C49.9023 51.6532 50.0362 52.0554 50.0362 52.5833H49.3892C49.3892 52.2565 49.3 51.98 49.0992 51.804C48.8985 51.628 48.6308 51.5274 48.2962 51.5274C47.9392 51.5274 47.6715 51.628 47.4931 51.8291C47.2923 52.0303 47.2031 52.3068 47.2031 52.6588C47.2031 52.8599 47.2477 53.061 47.3369 53.2621C47.4262 53.4633 47.56 53.6644 47.7162 53.8404C47.8723 54.0415 48.0954 54.2678 48.3408 54.5192L51.1739 57.2846H50.2815L47.8277 54.9466Z" fill="#0C0801"/>
<path d="M60.6994 50.9743H61.4802L63.8671 57.2846H63.1532L61.0786 51.628L59.004 57.2846H58.2902L60.6994 50.9743ZM59.4055 55.1728H62.8186V55.751H59.4055V55.1728Z" fill="#0C0801"/>
<path d="M66.5884 52.7844H68.9084V53.3124H66.5884V52.7844ZM67.0792 52.181C67.0792 51.7788 67.1684 51.4771 67.3468 51.276C67.5253 51.0749 67.793 50.9743 68.1499 50.9743H68.9084V51.5525H68.2615C68.083 51.5525 67.9492 51.6028 67.8599 51.7034C67.7707 51.8039 67.7261 51.9548 67.7261 52.1559V57.2846H67.0792V52.181Z" fill="#0C0801"/>
<path d="M71.6525 52.7844H73.9725V53.3124H71.6525V52.7844ZM72.1432 52.181C72.1432 51.7788 72.2325 51.4771 72.4109 51.276C72.5894 51.0749 72.8571 50.9743 73.214 50.9743H73.9725V51.5525H73.3255C73.1471 51.5525 73.0132 51.6028 72.924 51.7034C72.8348 51.8039 72.7902 51.9548 72.7902 52.1559V57.2846H72.1432V52.181Z" fill="#0C0801"/>
<path d="M77.6975 57.1086C77.4075 56.9578 77.1844 56.7315 77.0506 56.4298C76.8944 56.1282 76.8275 55.7762 76.8275 55.3739V54.6449C76.8275 54.2426 76.8944 53.8907 77.0506 53.589C77.2067 53.2873 77.4298 53.0862 77.6975 52.9353C77.9875 52.7845 78.3221 52.709 78.7237 52.709C79.1252 52.709 79.4598 52.7845 79.7498 52.9353C80.0398 53.0862 80.2629 53.3124 80.3967 53.589C80.5529 53.8907 80.6198 54.2175 80.6198 54.6449V55.3991C80.6198 55.8013 80.5529 56.1533 80.3967 56.455C80.2406 56.7567 80.0175 56.9578 79.7498 57.1086C79.4598 57.2595 79.1252 57.3349 78.7237 57.3349C78.3221 57.3349 77.9875 57.2595 77.6975 57.1086ZM79.6606 56.4047C79.8837 56.1784 79.9952 55.8265 79.9952 55.3991V54.6449C79.9952 54.2175 79.8837 53.8907 79.6606 53.6392C79.4375 53.413 79.1252 53.2873 78.7237 53.2873C78.3221 53.2873 78.0098 53.413 77.7867 53.6392C77.5637 53.8655 77.4521 54.2175 77.4521 54.6449V55.3991C77.4521 55.8265 77.5637 56.1784 77.7867 56.4047C78.0098 56.631 78.3221 56.7567 78.7237 56.7567C79.1252 56.7567 79.4375 56.6561 79.6606 56.4047Z" fill="#0C0801"/>
<path d="M84.1226 52.7845H84.7695V57.2846H84.1226V52.7845ZM86.4872 53.3627C86.3533 53.3124 86.1749 53.2873 85.9741 53.2873C85.5949 53.2873 85.2826 53.3878 85.0818 53.589C84.8587 53.7901 84.7695 54.0666 84.7695 54.4186L84.6803 53.5638C84.8587 53.2873 85.0818 53.0862 85.3495 52.9353C85.6172 52.7845 85.9295 52.709 86.2641 52.709C86.4649 52.709 86.6656 52.7342 86.8441 52.8096C87.0226 52.8599 87.1564 52.9604 87.2902 53.061L86.8664 53.589C86.7549 53.4884 86.621 53.413 86.4872 53.3627Z" fill="#0C0801"/>
<path d="M90.7032 57.1337C90.4578 56.9829 90.2794 56.7818 90.1455 56.5052C90.0117 56.2287 89.967 55.9018 89.967 55.5247V54.5443C89.967 54.1672 90.034 53.8152 90.1455 53.5638C90.257 53.2872 90.4355 53.0861 90.6809 52.9353C90.904 52.7844 91.194 52.709 91.5286 52.709C91.8855 52.709 92.1978 52.7844 92.4655 52.9101C92.7332 53.0358 92.9563 53.237 93.1124 53.5386L93.0232 54.3934C93.0232 54.1923 92.9786 54.0163 92.8894 53.8403C92.8001 53.6643 92.6663 53.5135 92.4878 53.4129C92.3094 53.3124 92.1086 53.237 91.8632 53.237C91.484 53.237 91.1717 53.3627 90.9709 53.5889C90.7478 53.8152 90.6586 54.142 90.6586 54.5443V55.5247C90.6586 55.927 90.7701 56.2538 90.9709 56.4549C91.1717 56.6812 91.484 56.7818 91.8632 56.7818C92.1086 56.7818 92.3094 56.7315 92.4878 56.6058C92.6663 56.5052 92.8001 56.3544 92.8894 56.1533C92.9786 55.9773 93.0232 55.7761 93.0232 55.6002L93.0901 56.5304C92.9786 56.8069 92.8001 57.008 92.5324 57.1337C92.287 57.2594 91.9747 57.3097 91.5955 57.3097C91.2386 57.3349 90.9486 57.2846 90.7032 57.1337ZM93.0009 50.9743H93.6478V57.2846H93.0009V50.9743Z" fill="#0C0801"/>
<path d="M97.4399 56.9829C97.1499 56.7315 96.9938 56.4047 96.9938 55.9522C96.9938 55.5248 97.1276 55.198 97.3953 54.9717C97.663 54.7454 98.0645 54.6197 98.5553 54.6197H100.095L100.161 55.198H98.5553C98.2653 55.198 98.0199 55.2734 97.8638 55.3991C97.7076 55.5248 97.6184 55.7259 97.6184 55.9522C97.6184 56.2036 97.7299 56.4047 97.9307 56.5556C98.1315 56.7064 98.4215 56.7567 98.8007 56.7567C99.2022 56.7567 99.5145 56.7064 99.7376 56.631C99.9607 56.5556 100.072 56.455 100.072 56.3041L100.161 56.8824C100.072 56.9829 99.9607 57.0584 99.8045 57.1338C99.6707 57.2092 99.4922 57.2595 99.3138 57.2846C99.1353 57.3098 98.9345 57.3349 98.7115 57.3349C98.1538 57.3349 97.7299 57.2343 97.4399 56.9829ZM100.05 54.4186C100.05 54.0666 99.9384 53.7649 99.7376 53.5638C99.5369 53.3627 99.2469 53.2621 98.8899 53.2621C98.6669 53.2621 98.4438 53.2873 98.243 53.3627C98.0422 53.4381 97.8415 53.5387 97.6853 53.6644L97.2169 53.3627C97.3953 53.1616 97.6184 53.0107 97.9084 52.885C98.1984 52.7593 98.5107 52.709 98.8676 52.709C99.2469 52.709 99.5815 52.7845 99.8492 52.9102C100.117 53.0359 100.34 53.237 100.474 53.4884C100.608 53.7398 100.697 54.0415 100.697 54.3935V57.2846H100.05V54.4186Z" fill="#0C0801"/>
<path d="M104.244 50.9743H104.891V57.2846H104.244V50.9743ZM105.382 57.1589C105.136 57.0332 104.936 56.8321 104.824 56.5555L104.891 55.6253C104.891 55.8264 104.936 56.0024 105.025 56.1784C105.114 56.3544 105.248 56.5052 105.426 56.6309C105.605 56.7315 105.806 56.8069 106.051 56.8069C106.43 56.8069 106.742 56.7063 106.943 56.4801C107.144 56.2538 107.256 55.9521 107.256 55.5499V54.5694C107.256 54.1672 107.144 53.8403 106.943 53.6141C106.742 53.3878 106.43 53.2621 106.051 53.2621C105.806 53.2621 105.605 53.3124 105.426 53.4381C105.248 53.5386 105.114 53.6895 105.025 53.8655C104.936 54.0415 104.891 54.2174 104.891 54.4186L104.802 53.5638C104.958 53.2621 105.181 53.061 105.449 52.9353C105.716 52.8096 106.029 52.7341 106.386 52.7341C106.72 52.7341 106.988 52.8096 107.233 52.9604C107.456 53.1112 107.635 53.3124 107.769 53.5889C107.88 53.8655 107.947 54.1923 107.947 54.5694V55.5499C107.947 55.927 107.88 56.2538 107.769 56.5304C107.635 56.8069 107.456 57.008 107.211 57.1589C106.966 57.3097 106.676 57.3851 106.341 57.3851C105.962 57.3349 105.649 57.2846 105.382 57.1589Z" fill="#0C0801"/>
<path d="M112.052 56.1027C112.052 56.3039 112.096 56.4296 112.186 56.5553C112.275 56.6558 112.409 56.7061 112.587 56.7061H113.011V57.2843H112.476C112.141 57.2843 111.873 57.1838 111.673 56.9827C111.494 56.7815 111.383 56.4798 111.383 56.1027V50.9992H112.029V56.1027H112.052Z" fill="#0C0801"/>
<path d="M117.026 57.1086C116.714 56.9578 116.491 56.7315 116.335 56.4299C116.178 56.1282 116.089 55.7762 116.089 55.3488V54.846C116.089 54.3935 116.156 54.0164 116.312 53.7147C116.468 53.3878 116.692 53.1616 116.982 52.9856C117.272 52.8096 117.628 52.7342 118.03 52.7342C118.409 52.7342 118.744 52.8096 119.034 52.9856C119.302 53.1364 119.525 53.3878 119.658 53.6895C119.792 53.9912 119.882 54.3683 119.882 54.8209V55.3488H116.535V54.7957H119.279V54.7454C119.279 54.2929 119.168 53.9661 118.945 53.7147C118.722 53.4633 118.432 53.3376 118.03 53.3376C117.606 53.3376 117.272 53.4633 117.026 53.7147C116.781 53.9661 116.669 54.3432 116.669 54.7957V55.3739C116.669 55.8265 116.803 56.1784 117.048 56.4299C117.294 56.6813 117.651 56.807 118.119 56.807C118.342 56.807 118.543 56.7567 118.766 56.6813C118.967 56.6058 119.168 56.4801 119.324 56.3041L119.77 56.7064C119.547 56.9327 119.279 57.0835 119.012 57.2092C118.722 57.3349 118.432 57.3852 118.142 57.3852C117.695 57.3349 117.338 57.2595 117.026 57.1086Z" fill="#0C0801"/>
<path d="M119.561 47.1645H0V48.1167H119.561V47.1645Z" fill="#0C0801"/>
<path d="M124.075 25.7963C124.075 25.7963 138.709 30.573 138.598 40.2772C138.598 40.2772 140.271 57.775 99.4031 62.1746C99.4031 62.1746 118.722 64.563 135.809 54.3811C135.809 54.3811 149.105 45.7076 143.728 36.5061C143.728 36.481 138.865 26.9779 124.075 25.7963Z" fill="#0C0801"/>
<path d="M125.012 9.75647L119.212 10.8878C118.208 11.0889 117.472 11.994 117.361 13.1253C117.182 15.3125 117.004 17.5249 116.803 19.7121C116.312 17.5752 115.844 15.4382 115.353 13.3013C115.108 12.2454 114.327 11.466 113.368 11.3152C111.561 11.0386 109.754 10.7621 107.947 10.4604L113.39 9.1531C114.327 8.92684 115.041 8.07206 115.197 7.01616L116.134 0.479614C116.491 2.69198 116.848 4.90435 117.205 7.09158C117.361 7.99664 118.008 8.67543 118.811 8.80113C120.885 9.1531 122.96 9.45479 125.012 9.75647Z" fill="#0C0801"/>
<path d="M9.99385 24.0422C10.3731 24.0422 10.7523 24.0674 11.1315 24.1177C11.2877 24.1428 11.4438 24.1679 11.6 24.2182C11.7562 24.2685 11.9346 24.3691 12.1577 24.4696C12.3808 24.5953 12.5146 24.6456 12.5815 24.6959C14.0538 25.4752 14.9462 26.6569 15.2362 28.2156C15.5038 29.724 15.4146 31.0565 14.9908 32.1878C14.5 33.5454 13.6523 34.4504 12.4477 34.903C12.1577 35.0287 11.9123 35.1041 11.7338 35.1544C12.8715 36.6628 13.6746 37.7187 14.1208 38.2969C14.2769 38.498 14.6338 38.9506 15.1915 39.6545C15.7492 40.3585 16.1731 40.9115 16.4631 41.3138C16.3738 41.5149 16.24 41.6406 16.0838 41.6406C14.9908 41.6909 14.0092 41.6909 13.1169 41.5903C12.8046 41.5401 12.3808 41.5149 11.8231 41.5149C11.2654 41.5149 10.8638 41.5149 10.6408 41.4898H10.1723C9.54769 40.7356 8.7 39.6294 7.65154 38.1461C6.60308 36.6879 5.95615 35.808 5.77769 35.5566C5.73308 35.9086 5.71077 36.8891 5.77769 38.498C5.82231 40.107 5.84462 41.1127 5.84462 41.4898H0C0 40.8613 0 40.3836 0 40.0568C0 39.7299 0.0223077 39.2774 0.0223077 38.6489C0.0446154 38.0204 0.0446154 37.5427 0.0669231 37.241V28.6681V24.4696C0.156154 24.3188 0.312308 24.2182 0.513077 24.2182C0.646923 24.1931 1.02615 24.1931 1.69538 24.2182C2.34231 24.2434 2.74385 24.2434 2.87769 24.2434C3.05615 24.2434 3.41308 24.2434 3.94846 24.2182C4.48385 24.2182 4.88539 24.1931 5.17538 24.2182C5.75538 24.2434 6.58077 24.2182 7.65154 24.1428C8.72231 24.0674 9.50308 24.0422 9.99385 24.0422ZM6.58077 26.858C6.55846 26.858 6.51385 26.858 6.44692 26.8328C6.38 26.8328 6.31308 26.8077 6.29077 26.8077C6.24615 26.8077 6.20154 26.8077 6.13462 26.8077C6.06769 26.8077 6.02308 26.8328 5.95615 26.8328C5.91154 26.858 5.84462 26.8831 5.8 26.9083C5.73308 28.1904 5.73308 30.1011 5.82231 32.6906C5.93385 32.7409 6.22385 32.7409 6.69231 32.7409C7.16077 32.7409 7.45077 32.7409 7.51769 32.7409C7.80769 32.766 8.05308 32.7157 8.29846 32.59C8.78923 32.3889 9.14615 32.1124 9.36923 31.7604C9.61462 31.4084 9.72615 30.9307 9.72615 30.3525C9.72615 30.252 9.72615 30.076 9.70385 29.8246C9.68154 29.5983 9.68154 29.4223 9.68154 29.2966C9.70385 28.8944 9.57 28.3916 9.25769 27.7882C9.05692 27.4111 8.74462 27.1345 8.34308 27.0088C8.23154 26.9585 8.12 26.9334 8.00846 26.9083C7.89692 26.8831 7.76308 26.858 7.62923 26.858C7.49538 26.858 7.38385 26.8328 7.31692 26.8328C7.25 26.8328 7.11615 26.8328 6.93769 26.8328C6.73692 26.858 6.62538 26.858 6.58077 26.858Z" fill="#0C0801"/>
<path d="M18.8274 24.0673C19.1843 24.0673 19.7643 24.0673 20.5451 24.1176C21.3259 24.1679 21.9059 24.193 22.3074 24.1679C22.6643 24.1679 23.0659 24.1679 23.4674 24.1679C23.8689 24.1679 24.3374 24.1679 24.8282 24.1679C25.3189 24.1679 25.7205 24.1679 25.9882 24.1679C26.0551 24.1679 26.1666 24.1427 26.3228 24.1176C26.4789 24.0925 26.5905 24.0673 26.6574 24.0673C28.1966 24.0673 29.5128 24.2433 30.6282 24.6204C31.7659 24.9975 32.6136 25.6763 33.1712 26.6568C33.7959 27.8384 34.1305 28.9697 34.1305 30.0508C34.1305 30.1765 34.1082 30.3776 34.0636 30.6541C34.0189 30.9055 33.9966 31.1067 33.9966 31.2324C33.9966 31.5592 33.952 31.8609 33.8405 32.1374C33.7512 32.414 33.6174 32.7659 33.4389 33.1431C33.2605 33.5202 33.1266 33.7967 33.082 33.9476C33.0151 34.1487 32.8366 34.3749 32.5466 34.6012C31.6097 35.456 30.6059 35.9337 29.5574 36.0342C29.2005 36.0594 28.6874 36.0845 28.0182 36.1096C27.3489 36.1348 26.9474 36.1599 26.8136 36.1599C26.5905 36.1851 26.2559 36.1851 25.8097 36.1599C25.3636 36.1348 25.0289 36.1348 24.7836 36.1599C24.7612 36.1599 24.7166 36.1599 24.6051 36.1599C24.4936 36.1599 24.4266 36.1599 24.382 36.1599C24.3374 36.1599 24.2928 36.1851 24.2036 36.1851C24.1143 36.2102 24.0474 36.2353 23.9805 36.2856C23.9359 36.9141 23.9136 37.7689 23.9136 38.85C23.9136 39.931 23.9136 40.7858 23.9136 41.4143C23.8243 41.54 23.7128 41.5903 23.6236 41.5903C23.0212 41.5651 22.1066 41.5651 20.902 41.54C19.6974 41.5149 18.8051 41.4897 18.2028 41.4897C18.1805 41.364 18.1805 41.2132 18.1582 41.0875C18.1582 40.9618 18.1582 40.8109 18.1582 40.6349C18.1582 40.459 18.1582 40.3584 18.1582 40.283C18.1582 38.1712 18.1359 36.5873 18.1136 35.5314C18.0689 35.3051 18.0689 34.2492 18.0912 32.3888C18.1136 30.5033 18.1359 29.4474 18.1359 29.2211C18.1359 28.7435 18.1136 28.0395 18.0912 27.0842C18.0689 26.1288 18.0466 25.4249 18.0466 24.9472C18.0466 24.5953 18.1136 24.369 18.2028 24.2684C18.3366 24.1427 18.5374 24.0925 18.8274 24.0673ZM25.6759 26.7574C25.1628 26.6568 24.5828 26.6568 23.9359 26.7574C23.9136 30.0005 23.9136 32.2129 23.9582 33.3945C24.092 33.4196 24.2482 33.4447 24.382 33.4447C24.5159 33.4447 24.6943 33.4447 24.9174 33.4447C25.1405 33.4447 25.2743 33.4447 25.2966 33.4447C25.832 33.4699 26.2559 33.319 26.6351 32.9922C26.992 32.6654 27.2597 32.238 27.4382 31.6849C27.7282 30.805 27.7505 29.7994 27.5274 28.668C27.4605 28.2407 27.2597 27.8384 26.9697 27.4362C26.702 27.0088 26.3674 26.7825 25.9659 26.8076C25.9212 26.8076 25.8097 26.8076 25.6759 26.7574Z" fill="#0C0801"/>
<path d="M44.2584 23.7906C44.3922 23.7906 44.6376 23.8158 44.9499 23.8409C46.333 23.8661 47.4261 24.1175 48.2515 24.5951C48.7422 24.8968 49.1661 25.1734 49.5007 25.4499C49.8353 25.7265 50.1253 26.0533 50.3484 26.4304C50.5045 26.7321 50.5938 26.9332 50.6384 27.0338C50.6607 27.1092 50.7053 27.2349 50.7722 27.4109C50.8392 27.5869 50.8838 27.7126 50.9061 27.8634C50.9507 27.9891 50.973 28.1148 50.9953 28.2657C50.9953 28.2908 51.0176 28.3662 51.0399 28.4668C51.0622 28.5925 51.0845 28.6679 51.0845 28.6931C51.0845 28.7433 51.0845 28.7936 51.0622 28.8439C51.0399 28.869 50.9953 28.869 50.9507 28.869C50.9061 28.869 50.8392 28.869 50.7499 28.869C50.6607 28.869 50.6161 28.869 50.5715 28.869C50.4153 28.869 50.1922 28.869 49.9468 28.8439C49.6792 28.8188 49.5007 28.8188 49.3668 28.8188C49.1884 28.8188 49.0545 28.8188 49.0099 28.8439C48.7868 28.869 48.653 28.8439 48.5861 28.7936C48.5192 28.7433 48.4522 28.5925 48.363 28.3411C48.0953 27.5366 47.6045 27.0338 46.8907 26.8327C46.8461 26.8075 46.7568 26.7824 46.623 26.7572C46.4892 26.707 46.3999 26.6818 46.333 26.6567C46.2661 26.6315 46.1768 26.6064 46.0876 26.5813C45.9984 26.5561 45.8868 26.531 45.7976 26.531C45.7084 26.531 45.6192 26.5058 45.5299 26.5058C45.2399 26.5058 44.9053 26.5813 44.5038 26.7321C44.2361 26.8327 43.9238 27.0086 43.5445 27.2852C43.433 27.3606 43.3438 27.436 43.2545 27.5617C43.1653 27.6623 43.0761 27.788 42.9868 27.9388C42.8976 28.0897 42.8084 28.1902 42.7638 28.2657C42.4515 28.6679 42.1838 29.1456 42.0053 29.6987C41.7153 30.5032 41.5368 31.2825 41.4699 31.9865C41.4476 32.4139 41.4476 32.791 41.4253 33.0927C41.4253 33.4195 41.4253 33.696 41.4476 33.9223C41.4699 34.1486 41.4922 34.3245 41.5145 34.4502C41.5368 34.5759 41.5592 34.7016 41.5815 34.8525C41.6038 35.0033 41.6261 35.1039 41.6484 35.1542C41.7376 35.657 41.8492 36.0844 42.0276 36.4615C42.2061 36.8135 42.4292 37.2157 42.7415 37.6682C42.8307 37.8191 42.9645 37.9448 43.143 38.0705C43.7453 38.4727 44.2138 38.7493 44.5707 38.875C44.7045 38.9253 44.8384 38.9504 44.9945 38.9755C45.1507 39.0007 45.3068 39.0258 45.4853 39.051C45.6638 39.0761 45.7976 39.1012 45.9092 39.1012C46.1322 39.1264 46.3776 39.1012 46.6453 39.0258C47.4484 38.8247 48.1845 38.523 48.8984 38.0956C49.1884 37.9448 49.5453 37.6431 49.9915 37.2408C50.1476 37.1403 50.2592 37.1151 50.3261 37.1403C50.3707 37.2157 50.4599 37.3163 50.5492 37.4922C50.6384 37.6431 50.7053 37.7688 50.7499 37.8191C50.8392 37.9448 50.9507 38.0956 51.0845 38.3219C51.2184 38.5482 51.3076 38.6739 51.3522 38.699C51.5753 39.0761 51.5307 39.3778 51.1961 39.6041C51.1068 39.6795 50.9284 39.8052 50.683 39.9812C50.4376 40.1571 50.2368 40.308 50.0807 40.3834C49.1884 40.8862 48.4522 41.2382 47.8499 41.4645C47.2699 41.6907 46.4892 41.8667 45.4853 41.9924C45.2622 42.0175 44.9276 41.9924 44.5261 41.9924C44.1022 41.9673 43.8345 41.9673 43.7007 41.9673C43.1876 41.9924 42.4068 41.8667 41.403 41.5902C40.6892 41.389 39.8415 40.9868 38.9045 40.3834C38.793 40.308 38.6368 40.1823 38.4361 40.0063C38.2353 39.8303 38.1015 39.7046 37.9899 39.6543C37.7892 39.5286 37.5215 39.1767 37.1868 38.5733C36.8522 37.9951 36.5845 37.4671 36.4061 37.0146C36.3392 36.8637 36.2276 36.4363 36.0492 35.7324C35.8707 35.0033 35.7815 34.5508 35.7815 34.3245C35.7815 34.1988 35.7592 34.0229 35.7145 33.7212C35.6922 33.4446 35.6699 33.2184 35.6699 33.0675C35.6699 32.4139 35.6922 31.911 35.7592 31.5842C35.7815 31.5088 35.8038 31.3328 35.8484 31.0563C35.893 30.7546 35.9376 30.5535 35.9376 30.3775C35.9599 30.2518 36.0268 30.0004 36.1607 29.6484C36.3615 29.1204 36.6961 28.4417 37.2092 27.612C37.2761 27.4863 37.3653 27.3355 37.4545 27.2098C37.5438 27.0841 37.6553 26.9332 37.7892 26.7824C37.923 26.6064 38.0122 26.5058 38.0792 26.4304C38.1238 26.355 38.1684 26.3047 38.2353 26.2544C38.3022 26.2041 38.3692 26.1287 38.4807 26.0784C38.5699 26.003 38.6368 25.9527 38.6815 25.9276C39.5515 25.2739 40.3992 24.7963 41.2245 24.5197C41.983 24.2432 42.5853 24.0923 43.0538 24.0421C43.1653 24.0421 43.3661 24.0169 43.6338 23.9666C43.9015 23.7907 44.1245 23.7906 44.2584 23.7906Z" fill="#0C0801"/>
<path d="M64.6478 24.0927C64.6701 24.0927 64.7147 24.0927 64.737 24.0927C64.7593 24.1178 64.8039 24.1178 64.8262 24.143C64.8485 24.1681 64.8931 24.1933 64.9378 24.2436C64.9824 24.2938 65.027 24.319 65.0493 24.3441C64.8485 29.9756 64.8931 34.8026 65.1385 38.8251H66.5439C66.8339 38.8251 67.2801 38.7999 67.8824 38.7748C68.217 38.7496 68.5739 38.7496 68.9085 38.7748C69.0424 38.7748 69.2654 38.7748 69.5778 38.7245C69.8901 38.6742 70.1355 38.6742 70.3139 38.6994C70.4255 38.7245 70.6931 38.7245 71.0947 38.6742C71.2508 38.6491 71.3624 38.6994 71.407 38.8502L71.3847 39.881C71.3624 40.0821 71.3624 40.2581 71.3847 40.4341C71.407 40.61 71.407 40.7609 71.3847 40.9369C71.3624 41.1129 71.2955 41.2637 71.1839 41.3643C71.0947 41.4145 71.0054 41.4397 70.8939 41.4397C70.8047 41.4397 70.6931 41.4397 70.5816 41.4145C70.4701 41.3894 70.3808 41.3894 70.3139 41.4145C70.0685 41.4397 69.7116 41.4397 69.2208 41.4145C68.7301 41.4145 68.3508 41.4145 68.1054 41.4145C67.7708 41.4397 67.2354 41.4397 66.5439 41.4397C65.8524 41.4397 65.3393 41.4397 64.9824 41.4648H63.6216C62.8855 41.4648 62.3278 41.49 61.9262 41.5151C61.6808 41.5402 61.4355 41.5654 61.1678 41.5654C60.9001 41.5654 60.5878 41.5654 60.2308 41.5654C59.8739 41.5654 59.6062 41.5654 59.4724 41.5654C59.3162 41.3643 59.2493 41.138 59.2493 40.9117C59.2493 40.7106 59.2493 40.3586 59.2716 39.9061C59.2716 39.4536 59.2939 39.0513 59.2716 38.6994C59.2716 38.3474 59.2493 38.0206 59.227 37.7189C59.2047 37.4675 59.2047 37.0652 59.2047 36.5121C59.2047 35.959 59.2047 35.5568 59.1824 35.3054C59.1601 35.0288 59.1601 34.6266 59.1601 34.1238C59.1601 33.621 59.1601 33.269 59.1378 33.1182C59.1378 32.9422 59.1601 32.3639 59.1824 31.4086C59.227 30.4533 59.2047 29.875 59.1824 29.699C59.1601 29.4979 59.1378 28.8443 59.0931 27.7381C59.0931 27.6124 59.1155 27.4364 59.1378 27.185C59.1601 26.9336 59.1824 26.7325 59.1824 26.6068C59.1824 26.4811 59.1824 26.2297 59.1601 25.8023C59.1378 25.3749 59.1378 25.0229 59.1378 24.7464C59.1378 24.4698 59.1601 24.319 59.2047 24.2687C59.2716 24.2436 59.3385 24.2184 59.4054 24.2184C59.4724 24.2184 59.5616 24.2184 59.6955 24.2184C59.807 24.2184 59.8962 24.2184 59.9185 24.2184C60.0747 24.2436 60.387 24.2687 60.8331 24.2436C61.2793 24.2184 61.5693 24.2184 61.7255 24.2184C62.2608 24.2184 62.9078 24.1681 63.6662 24.0927C63.7554 24.0676 63.9116 24.0676 64.1347 24.0927C64.3801 24.1178 64.5362 24.1178 64.6478 24.0927Z" fill="#0C0801"/>
<path d="M78.7462 24.0419C78.9024 24.0168 79.0362 24.0419 79.0808 24.1173C79.1478 24.1927 79.1701 24.3184 79.1701 24.5196C79.1478 24.8715 79.1478 25.2235 79.1701 25.6006C79.1924 25.9526 79.1924 26.4303 79.1701 27.0839C79.1478 27.7376 79.1478 28.1901 79.1478 28.4666C79.1478 28.6426 79.1478 28.9192 79.1478 29.2711C79.1478 29.6482 79.1478 29.8996 79.1478 30.1008C79.1478 30.1008 79.1478 30.5533 79.1478 31.4332V32.7908C79.1478 32.9165 79.1478 33.2685 79.1255 33.8719C79.1032 34.4752 79.1032 34.8272 79.1032 34.9529C79.1032 35.0786 79.1255 35.4306 79.1255 36.0339C79.1478 36.2853 79.1478 37.0144 79.1478 38.2714V40.7101C79.1478 40.7855 79.1701 40.8861 79.1924 41.0118C79.2147 41.1123 79.2147 41.2129 79.1478 41.3135C79.1032 41.414 79.0139 41.4392 78.9247 41.4392C78.6347 41.4392 78.2108 41.4643 77.6532 41.5146C77.1178 41.5649 76.7162 41.59 76.4932 41.6151C76.3593 41.6151 76.2478 41.6151 76.0916 41.6151C75.9578 41.6151 75.8016 41.59 75.6232 41.59C75.4447 41.5649 75.3108 41.5649 75.2216 41.5649C74.307 41.5397 73.6601 41.5397 73.3032 41.6151C73.1693 41.5146 73.1024 41.3386 73.1024 41.0872C73.1693 40.2073 73.1916 39.6039 73.1693 39.3273C73.1247 38.6234 73.1024 37.9949 73.1247 37.4418C73.1693 35.5311 73.1693 34.3998 73.1693 33.9976C73.1693 33.7713 73.1693 33.4193 73.1693 32.9919C73.1693 32.5645 73.1916 32.2629 73.1916 32.112V29.7991C73.1916 29.6734 73.1916 29.4974 73.1916 29.246C73.1916 29.0197 73.1916 28.8186 73.1916 28.6175C73.1916 28.4164 73.1916 28.2655 73.1693 28.0895C73.1693 27.989 73.147 27.813 73.1247 27.5364C73.1024 27.285 73.0801 27.0588 73.0801 26.9079C73.0801 26.7571 73.0801 26.5308 73.0801 26.2543C73.0801 25.9777 73.1024 25.8017 73.1024 25.7012C73.1024 25.6258 73.1024 25.5252 73.1024 25.3743C73.1024 25.2486 73.1024 25.1229 73.1024 24.9972C73.1024 24.8715 73.1024 24.7458 73.1024 24.6201C73.1024 24.4944 73.1024 24.3939 73.1024 24.3184V24.2179C73.2362 24.1927 73.437 24.1927 73.7047 24.1927C73.9724 24.1927 74.1955 24.1676 74.3293 24.1425C74.5078 24.1173 74.6193 24.0922 74.6639 24.0922C74.7085 24.0922 74.8424 24.0922 74.9985 24.1173C75.177 24.1425 75.2885 24.1425 75.3332 24.1425C75.6008 24.1676 75.8908 24.1676 76.1585 24.1425C76.627 24.1173 77.0955 24.1173 77.5416 24.1425C77.9655 24.1425 78.3447 24.1173 78.7462 24.0419Z" fill="#0C0801"/>
<path d="M100.273 24.0424C100.318 24.0926 100.34 24.1178 100.363 24.1681C100.363 24.2183 100.363 24.2686 100.363 24.3189C100.34 24.3943 100.34 24.4446 100.34 24.4697V26.3553C100.407 27.3106 100.429 27.9391 100.429 28.2157C100.429 28.3414 100.429 28.5677 100.452 28.8945C100.452 29.2464 100.474 29.4979 100.452 29.6738C100.429 29.8247 100.429 30.0007 100.429 30.1766C100.429 30.3526 100.429 30.5538 100.429 30.78C100.429 31.0063 100.429 31.1823 100.429 31.2828C100.429 32.2382 100.407 33.1935 100.363 34.1489C100.363 34.2997 100.363 34.5008 100.385 34.7774C100.407 35.0539 100.407 35.255 100.407 35.3556C100.385 35.8835 100.385 36.4366 100.407 36.9646C100.407 37.0903 100.429 37.3166 100.429 37.6685C100.429 38.0205 100.452 38.297 100.452 38.4982C100.474 38.6239 100.474 39.001 100.474 39.6295C100.474 39.7552 100.474 39.9563 100.474 40.2329C100.474 40.5094 100.474 40.6854 100.474 40.8111C100.496 41.0374 100.452 41.2133 100.318 41.3391H99.5595C99.2248 41.3391 98.7118 41.3642 98.0202 41.4145C97.3064 41.4648 96.771 41.4899 96.4141 41.4648C96.3472 41.4648 96.2356 41.4648 96.0572 41.4396C95.901 41.4396 95.7672 41.4145 95.6779 41.4145C95.5887 41.4145 95.4772 41.4145 95.3433 41.4145C95.2095 41.4145 95.0756 41.4396 94.9641 41.4648C94.9195 41.4648 94.8972 41.4648 94.8748 41.4648C94.8525 41.4648 94.8079 41.4396 94.7633 41.4145C94.7187 41.3893 94.6741 41.3642 94.6518 41.3642C94.6072 41.2133 94.6072 40.5597 94.6295 39.4535C94.6295 38.1462 94.6518 37.1657 94.6964 36.4869C94.7187 35.959 94.7187 35.1796 94.6964 34.174C94.6964 33.9226 94.6964 33.3192 94.741 32.4142C94.7856 31.5091 94.7633 30.9309 94.7187 30.6543C94.451 31.0817 94.2725 31.3834 94.2056 31.5342C93.7148 32.6153 93.1125 34.0231 92.3541 35.7327C92.1087 36.2355 91.8633 36.9143 91.5733 37.744C91.4841 37.9702 91.3502 38.0708 91.1272 38.0456C90.9487 37.9954 90.7479 37.9702 90.5248 37.9451C90.3018 37.9451 90.1233 37.9199 89.9672 37.9451C89.8333 37.9451 89.6102 37.9702 89.3425 37.9954C89.0749 38.0205 88.8741 38.0456 88.7625 38.0456C88.6287 38.0708 88.4502 38.0708 88.1825 38.0708C88.1156 38.0708 88.0487 38.0205 87.9818 37.8948C87.9148 37.744 87.781 37.5177 87.6248 37.2411C87.4687 36.9646 87.3349 36.7383 87.2679 36.5875C87.2456 36.5623 86.8218 35.7327 85.9741 34.1489C85.5279 33.2689 85.2379 32.741 85.1041 32.5399C84.9256 32.2382 84.7025 31.8359 84.4349 31.3331C84.1895 30.8554 84.0333 30.5789 83.9664 30.4783C83.9887 30.604 83.9887 30.8303 83.9887 31.132C83.9887 31.4337 84.011 31.6599 84.0333 31.8359C84.0556 31.8611 84.0556 31.9616 84.0333 32.1628C84.011 32.3639 84.011 32.4644 84.011 32.5147C84.0333 33.1684 84.0556 33.6712 84.0556 33.998C84.0779 34.6517 84.0779 35.3053 84.0556 35.9338C84.0333 37.0652 84.0333 38.0708 84.0779 38.9758C84.0779 39.1518 84.0779 39.4535 84.0779 39.8306C84.0779 40.2077 84.0779 40.5094 84.0779 40.7105C84.0779 40.7105 84.0779 40.7608 84.0779 40.8362C84.0779 40.9117 84.1002 40.9871 84.1002 41.0625C84.1002 41.1379 84.1002 41.1882 84.0779 41.2385C84.0556 41.2888 84.011 41.3391 83.9664 41.3391C83.9218 41.3391 83.6095 41.3391 83.0518 41.3391C82.4941 41.3391 82.1818 41.339 82.1372 41.3893C82.0702 41.4145 82.0033 41.3893 81.9587 41.3642C81.9141 41.3139 81.8918 41.2385 81.8918 41.1631C81.9141 40.9871 81.9141 40.7357 81.9141 40.434C81.9141 40.1323 81.9141 39.8809 81.9141 39.6798C81.9364 38.9758 81.9587 38.4227 81.9364 38.0456L81.9587 35.1796C81.9364 34.7019 81.9364 33.9729 81.9364 32.9924V30.604C81.9364 30.4783 81.9364 30.1766 81.9141 29.6487C81.8918 29.1207 81.8918 28.8191 81.9141 28.7185C81.9364 28.4922 81.9364 28.1654 81.9141 27.738C81.8918 27.3106 81.8918 27.0089 81.8918 26.8078C81.8918 26.481 81.8695 26.0285 81.8472 25.4251C81.8472 25.3245 81.8472 25.1737 81.8472 24.9977C81.8472 24.8217 81.8472 24.696 81.8472 24.6206C81.8248 24.4697 81.8472 24.2686 81.9364 24.0172C82.3379 24.0424 83.0964 24.0424 84.2341 24.0172C84.3902 24.0172 84.6356 24.0172 84.9479 24.0172C85.2602 24.0172 85.5279 24.0172 85.7733 24.0172C86.0187 24.0172 86.2641 24.0172 86.4872 24.0172C86.5318 24.0172 86.621 24.0172 86.7102 24.0172C86.8218 24.0172 86.8887 24.0172 86.9333 24.0172C87.0672 24.0172 87.1564 24.0424 87.201 24.1178C87.3348 24.52 87.5802 25.0983 87.9149 25.8525C88.2495 26.5815 88.4502 27.0089 88.4949 27.1095C88.6287 27.4363 88.8518 27.8637 89.1418 28.4168C89.4318 28.9699 89.6325 29.3219 89.7441 29.523C90.2795 30.6795 90.7702 31.6097 91.1941 32.2633C91.2164 32.213 91.2387 32.1376 91.3056 32.0622C91.3502 31.9616 91.3948 31.8862 91.4172 31.8359C91.4395 31.7605 91.4841 31.7102 91.4841 31.6348C91.5287 31.4085 91.6625 31.1068 91.8187 30.7046C91.9972 30.3023 92.0864 30.0761 92.1087 30.0258C92.1756 29.8498 92.3095 29.5733 92.4879 29.2213C92.6664 28.8693 92.8002 28.5928 92.8672 28.3917C93.2687 27.5117 93.6702 26.6318 94.0718 25.7268C94.0718 25.7016 94.2502 25.2742 94.5849 24.4195C94.6295 24.3189 94.6741 24.2435 94.741 24.1932C94.7856 24.1429 94.8748 24.1429 94.9864 24.1429C95.1872 24.1429 95.4772 24.1429 95.8564 24.1681C96.2356 24.1932 96.5256 24.1932 96.7264 24.1932C96.8379 24.1932 97.1949 24.1681 97.7525 24.1429C98.4664 24.0926 99.2025 24.0675 99.9164 24.0675C100.05 24.0675 100.139 24.0424 100.273 24.0424Z" fill="#0C0801"/>
<path d="M111.985 23.8161L113.122 23.8915C113.301 23.8915 113.524 23.9669 113.836 24.0675C114.149 24.168 114.349 24.2435 114.483 24.2435C114.706 24.2686 114.974 24.3692 115.331 24.5703C115.688 24.7463 115.911 24.872 115.978 24.8971C116.045 24.9223 116.156 25.0228 116.312 25.1485C116.469 25.2742 116.536 25.3497 116.558 25.3748C117.205 25.9027 117.74 26.4056 118.142 26.9084C118.789 27.7129 119.212 28.5928 119.436 29.4978C119.458 29.5481 119.48 29.699 119.569 29.9755C119.636 30.2521 119.681 30.4532 119.703 30.5537C119.726 30.6794 119.748 30.8303 119.77 31.0566C119.792 31.2828 119.815 31.4839 119.815 31.6851C119.926 32.741 119.837 33.8974 119.525 35.1796C119.346 35.959 119.168 36.5875 118.967 37.0651C118.655 37.8194 118.298 38.4982 117.896 39.0764C117.517 39.6546 116.915 40.2329 116.067 40.7859C115.866 40.9368 115.442 41.1631 114.84 41.4396C114.684 41.515 114.506 41.5653 114.327 41.5904C114.149 41.6156 113.948 41.6659 113.725 41.691C113.502 41.7161 113.323 41.7413 113.212 41.7664C112.699 41.867 112.252 41.9173 111.851 41.9173C111.293 41.9173 110.959 41.9173 110.847 41.8921C110.736 41.867 110.468 41.8419 110.066 41.7916C109.665 41.7413 109.33 41.691 109.129 41.6407C109.018 41.5904 108.839 41.5653 108.594 41.515C108.349 41.4647 108.148 41.4145 107.969 41.3642C107.791 41.3139 107.612 41.2385 107.479 41.1379C107.434 41.1128 107.256 41.0374 106.899 40.8865C106.564 40.7357 106.319 40.5848 106.162 40.4591C105.895 40.2077 105.649 40.0066 105.426 39.8557C105.226 39.73 105.002 39.4535 104.757 39.1015C104.512 38.7244 104.356 38.5233 104.289 38.4479C104.11 38.2468 103.887 37.9199 103.642 37.4423C103.396 36.9897 103.106 36.0595 102.749 34.6265C102.682 34.35 102.66 33.7969 102.682 32.9421C102.705 32.0873 102.749 31.5091 102.816 31.2074C103.039 30.2269 103.329 29.3721 103.686 28.6431C104.043 27.9391 104.378 27.4112 104.668 27.0089C105.27 26.129 105.895 25.5256 106.564 25.1988C106.72 25.1234 106.899 25.048 107.077 24.9474C107.278 24.8468 107.456 24.7714 107.612 24.696C107.769 24.6206 107.947 24.5452 108.148 24.4949C108.661 24.2938 109.04 24.168 109.263 24.1178C109.531 24.0423 109.932 23.9669 110.49 23.8915C111.092 23.7658 111.583 23.7658 111.985 23.8161ZM111.159 26.3553C110.936 26.4307 110.736 26.5564 110.535 26.7324C110.334 26.9084 110.178 27.1095 110.066 27.3106C109.999 27.4363 109.932 27.562 109.866 27.7129C109.799 27.8637 109.754 27.9894 109.732 28.09C109.709 28.1905 109.665 28.3414 109.598 28.5425C109.531 28.7688 109.509 28.8945 109.486 28.9448C109.442 29.0705 109.419 29.1962 109.397 29.2967C109.375 29.4224 109.352 29.5481 109.33 29.6738C109.308 29.7995 109.286 29.9252 109.263 30.0258C109.241 30.1264 109.219 30.2521 109.196 30.4029C109.174 30.5537 109.152 30.6543 109.152 30.7549C109.152 30.8303 109.129 30.956 109.107 31.132C109.085 31.308 109.085 31.4337 109.085 31.4839C109.085 31.5342 109.062 31.6599 109.062 31.8611C109.04 32.0622 109.04 32.1879 109.018 32.2382C108.996 32.3136 108.996 32.4644 108.996 32.6656C108.996 32.8667 109.018 33.0175 109.018 33.1181C109.018 33.2186 109.04 33.3695 109.062 33.5706C109.085 33.7717 109.085 33.9226 109.107 33.998C109.152 34.5762 109.174 34.9282 109.196 35.0539C109.263 35.5316 109.33 35.8584 109.375 36.0847C109.419 36.3109 109.486 36.6126 109.598 36.9646C109.709 37.3417 109.821 37.6434 109.955 37.9199C110.133 38.2719 110.312 38.5736 110.49 38.7998C110.669 39.0261 110.892 39.177 111.159 39.2775C111.539 39.4284 111.873 39.4284 112.119 39.2272C112.542 38.9004 112.832 38.473 112.966 37.9451C113.212 36.9646 113.368 36.0092 113.457 35.0288C113.502 34.4505 113.524 33.47 113.524 32.0873C113.524 31.6096 113.502 31.2577 113.479 31.0063C113.457 30.8806 113.435 30.4783 113.39 29.8498C113.346 29.2213 113.279 28.7185 113.145 28.3917C112.966 27.6626 112.743 27.1095 112.476 26.7072C112.386 26.5564 112.186 26.4558 111.873 26.3804C111.561 26.305 111.316 26.305 111.159 26.3553Z" fill="#0C0801"/>
</svg>
